#!OML:ASF \\Waltz\H\Terrain\Patient Classification 1\Animal2\Wednesday\Animal2.ASF
:FULLY-SPECIFIED
:DEGREES
452
root -1.57184 16.8673 -6.72327 -6.19899 3.89177 356.46
lowerback 3.70137 0.256412 9.30479
upperback -3.93161 1.4205 7.94545
thorax -6.25045 0.499077 3.04822
lowerneck 5.61691 5.7727 16.1308
upperneck -5.13462 8.38264 -11.8264
head -1.22896 4.25616 -6.34676
rclavicle 1.55052e-014 1.01778e-013
rhumerus 25.4797 31.9297 -31.0888
rradius 58.5627
rwrist -30.6993
rhand -7.6654 15.9479
rfingers 7.12502
rthumb 18.2308 -13.2178
lclavicle 1.55052e-014 1.01778e-013
lhumerus 9.62735 11.3765 -2.42249
lradius 59.4191
lwrist 11.1432
lhand -46.9459 10.1974
lfingers 7.12502
lthumb -19.6553 39.2238
rfemur -15.4548 -5.3296 3.8938
rtibia 32.1238
rfoot -6.40152 -11.9951
rtoes 33.4484
lfemur -14.5729 3.88995 -28.7082
ltibia 43.7646
lfoot -27.4649 2.94676
ltoes -6.49233
453
root -1.56823 16.8763 -6.69695 -6.07945 4.90378 356.429
lowerback 3.62708 0.265532 9.21227
upperback -3.91665 1.41954 7.98218
thorax -6.19381 0.507151 3.13754
lowerneck 5.53642 5.80868 16.2221
upperneck -5.34837 8.40308 -12.15
head -1.25555 4.26919 -6.46496
rclavicle 6.36111e-015 8.26944e-014
rhumerus 25.8378 31.706 -31.1511
rradius 58.4392
rwrist -30.6678
rhand -7.8043 15.9831
rfingers 7.12502
rthumb 18.0971 -13.195
lclavicle 6.36111e-015 8.26944e-014
lhumerus 9.47776 11.5718 -2.54963
lradius 59.5316
lwrist 11.2556
lhand -47.805 10.3872
lfingers 7.12502
lthumb -20.481 39.3269
rfemur -16.226 -4.79269 4.05118
rtibia 32.0689
rfoot -5.77635 -10.9177
rtoes 33.773
lfemur -14.4574 3.22299 -28.7851
ltibia 43.5133
lfoot -27.4654 2.83158
ltoes -7.49784
454
root -1.56384 16.8858 -6.66921 -5.99885 5.91705 356.309
lowerback 3.67685 0.252991 9.2321
upperback -4.00999 1.43216 8.04983
thorax -6.32629 0.512045 3.2013
lowerneck 5.55698 5.83702 16.3031
upperneck -5.47405 8.4305 -12.5221
head -1.26958 4.29231 -6.5986
rclavicle -1.27222e-014 4.45278e-014
rhumerus 25.9822 31.7564 -31.1072
rradius 58.6414
rwrist -30.7584
rhand -7.89936 15.5386
rfingers 7.12502
rthumb 18.0057 -13.6479
lclavicle -1.27222e-014 4.45278e-014
lhumerus 9.32289 11.7261 -2.59185
lradius 59.5869
lwrist 11.5667
lhand -48.2772 10.2418
lfingers 7.12502
lthumb -20.9348 39.1321
rfemur -16.9134 -4.10132 4.27058
rtibia 31.9553
rfoot -5.19057 -10.0288
rtoes 33.8056
lfemur -14.3022 2.58676 -28.7606
ltibia 43.2916
lfoot -27.4189 2.35419
ltoes -7.30643
455
root -1.55943 16.8932 -6.64451 -5.91865 6.94136 356.298
lowerback 3.74604 0.291551 9.27684
upperback -4.10567 1.50947 7.97889
thorax -6.4662 0.542994 3.09652
lowerneck 5.67379 5.79196 16.3952
upperneck -5.72327 8.37141 -12.7838
head -1.35327 4.26897 -6.70873
rclavicle -3.89618e-014 0
rhumerus 25.867 31.6857 -31.1925
rradius 58.8502
rwrist -30.9934
rhand -7.98399 15.4946
rfingers 7.12502
rthumb 17.9242 -13.6994
lclavicle -3.89618e-014 0
lhumerus 9.26077 11.8046 -2.69151
lradius 59.6507
lwrist 11.4667
lhand -48.7469 10.279
lfingers 7.12502
lthumb -21.3859 39.1188
rfemur -17.5535 -3.47946 4.37836
rtibia 31.7925
rfoot -4.74311 -9.15773
rtoes 33.3343
lfemur -14.1815 1.9887 -28.8539
ltibia 43.1018
lfoot -27.3573 2.10008
ltoes -7.90809
456
root -1.56038 16.8919 -6.62188 -5.84056 8.01102 356.462
lowerback 3.84984 0.339114 9.15256
upperback -4.14931 1.5812 7.83876
thorax -6.56888 0.57817 3.00872
lowerneck 5.81449 5.72893 16.4021
upperneck -6.15836 8.2785 -12.9318
head -1.50957 4.22428 -6.77675
rclavicle 4.77083e-015 -9.22361e-014
rhumerus 25.7726 31.3975 -31.4215
rradius 58.9294
rwrist -31.1786
rhand -7.81413 15.5375
rfingers 7.12502
rthumb 18.0877 -13.6414
lclavicle 4.77083e-015 -9.22361e-014
lhumerus 9.2468 11.8831 -2.78252
lradius 59.71
lwrist 11.0704
lhand -49.4307 11.7816
lfingers 7.12502
lthumb -22.0426 40.5454
rfemur -18.1566 -3.12157 4.32197
rtibia 31.6096
rfoot -4.43992 -8.14645
rtoes 32.1563
lfemur -14.0544 1.41508 -29.1225
ltibia 42.9141
lfoot -27.2868 2.01413
ltoes -9.39439
457
root -1.5574 16.8952 -6.5939 -5.81437 9.09292 356.363
lowerback 3.91609 0.323568 9.2828
upperback -4.19865 1.58708 7.78926
thorax -6.65756 0.572212 2.88506
lowerneck 5.79371 5.80139 16.3221
upperneck -6.30004 8.35999 -12.9108
head -1.53972 4.26301 -6.75943
rclavicle -5.88403e-014 -1.90833e-014
rhumerus 25.842 31.2898 -31.5843
rradius 59.0143
rwrist -31.3427
rhand -7.93699 15.2764
rfingers 7.12502
rthumb 17.9695 -13.9135
lclavicle -5.88403e-014 -1.90833e-014
lhumerus 9.14518 11.9857 -2.99903
lradius 59.7227
lwrist 11.0329
lhand -49.5755 12.7908
lfingers 7.12502
lthumb -22.1817 41.5382
rfemur -18.6988 -2.83829 4.55729
rtibia 31.4581
rfoot -4.20959 -7.23941
rtoes 30.5345
lfemur -13.8399 0.816242 -29.1169
ltibia 42.7092
lfoot -27.2607 1.67489
ltoes -9.54582
458
root -1.55253 16.9071 -6.56021 -5.73452 10.1817 356.327
lowerback 3.76692 0.340462 9.28935
upperback -4.19821 1.58839 7.74544
thorax -6.56852 0.575153 2.83367
lowerneck 5.63503 5.95207 16.1714
upperneck -6.22868 8.53655 -12.7913
head -1.47899 4.34696 -6.68596
rclavicle -1.31198e-014 -4.13472e-014
rhumerus 26.0127 31.236 -31.5148
rradius 59.1299
rwrist -31.4266
rhand -8.18034 15.4218
rfingers 7.12502
rthumb 17.7353 -13.7894
lclavicle -1.31198e-014 -4.13472e-014
lhumerus 9.14736 12.3504 -3.1498
lradius 59.6961
lwrist 11.3018
lhand -49.1889 12.5604
lfingers 7.12502
lthumb -21.8104 41.3514
rfemur -19.2477 -2.55249 4.7426
rtibia 31.3295
rfoot -3.90098 -6.52316
rtoes 29.869
lfemur -13.6401 0.188437 -29.1903
ltibia 42.4751
lfoot -27.3031 1.57702
ltoes -10.6418
459
root -1.55703 16.9163 -6.53484 -5.51482 11.301 356.639
lowerback 3.68315 0.378459 8.85758
upperback -4.24041 1.59783 7.62107
thorax -6.56571 0.59729 2.93698
lowerneck 5.79539 6.02517 15.9763
upperneck -6.54959 8.6299 -12.726
head -1.59716 4.39482 -6.64962
rclavicle -4.13472e-014 -8.5875e-014
rhumerus 26.083 31.0918 -31.5676
rradius 59.273
rwrist -31.2162
rhand -7.93359 15.8775
rfingers 7.12502
rthumb 17.9727 -13.3121
lclavicle -4.13472e-014 -8.5875e-014
lhumerus 9.18794 12.8092 -3.15394
lradius 59.6796
lwrist 11.4565
lhand -48.8986 11.9769
lfingers 7.12502
lthumb -21.5317 40.8
rfemur -19.9244 -2.1394 4.5659
rtibia 31.171
rfoot -3.55778 -6.03255
rtoes 30.6096
lfemur -13.591 -0.441211 -29.5934
ltibia 42.2094
lfoot -27.3102 1.56487
ltoes -13.0594
460
root -1.5611 16.9248 -6.51403 -5.36594 12.4339 356.767
lowerback 3.8638 0.420201 8.63491
upperback -4.40288 1.68185 7.51934
thorax -6.84511 0.639367 2.94704
lowerneck 6.13193 6.017 15.9267
upperneck -6.9126 8.64233 -12.8057
head -1.75491 4.40883 -6.69269
rclavicle 9.93923e-015 -6.36111e-015
rhumerus 25.94 30.9752 -31.8096
rradius 59.3528
rwrist -31.0659
rhand -7.78873 16.111
rfingers 7.12502
rthumb 18.1121 -13.0657
lclavicle 9.93923e-015 -6.36111e-015
lhumerus 9.15225 12.7882 -3.14688
lradius 59.8922
lwrist 11.6937
lhand -49.1145 11.6351
lfingers 7.12502
lthumb -21.739 40.4344
rfemur -20.542 -1.58316 4.55292
rtibia 30.9642
rfoot -3.53702 -5.77799
rtoes 32.6075
lfemur -13.4874 -1.03182 -29.7771
ltibia 41.9117
lfoot -27.3177 1.54288
ltoes -15.4563
